# xmcd
#
# Track frame offsets:
#	150
#	16571
#	27659
#	37989
#	50361
#	61208
#	75631
#	87098
#	99682
#	111606
#	121635
#	134917
#	143496
#	152229
#
# Disc length: 2222 seconds
#
# Revision: 0
# Processed by: cddbd v1.5.2PL0 Copyright (c) Steve Scherf et al.
# Submitted via: EasyCDDAExtractor 16.0.6.1
#
DISCID=b308ac0e
DTITLE=Γαβριήλ Μαρίνος ή Μαρινάκης - Τα κειμήλια του Μαρινάκη
DYEAR=1977
DGENRE=Ποικίλη
TTITLE0=Γαβριήλ Μαρίνος ή Μαρινάκης - Αχ συριανό μου πέραμα [Μαρ. Γαβριήλ]
TTITLE1=Γαβριήλ Μαρίνος ή Μαρινάκης - Το πορτοφόλι [Σπ. Περιστέρη]
TTITLE2=Γαβριήλ Μαρίνος ή Μαρινάκης - Στα μπλε τα παράθυρα [Μάρκου Βαμβακάρη]
TTITLE3=Γαβριήλ Μαρίνος ή Μαρινάκης - Πρωθυπουργός [Μάρκου Βαμβακάρη]
TTITLE4=Δελή Κορίνα - Χανουμάκι [Μαρ. Γαβριήλ]
TTITLE5=Δελή Κορίνα - Βάλε μυαλό [Μαρ. Γαβριήλ]
TTITLE6=Γαβριήλ Μαρίνος ή Μαρινάκης - Νυχτώνω, ξημερώνω [Μαρ. Γαβριήλ]
TTITLE7=Δελή Κορίνα - Παιδιά της πιάτσας [Μαρ. Γαβριήλ]
TTITLE8=Δελή Κορίνα - Μέσ' στη διπλή μου ζωή [Μαρίκας Λούρου]
TTITLE9=Γαβριήλ Μαρίνος ή Μαρινάκης - Τι γυρεύουν τέτοια ώρα [διασκ. Μαρ. Γαβρ
TTITLE9=ιήλ]
TTITLE10=Γαβριήλ Μαρίνος ή Μαρινάκης - Ο φυγουρατζής [Αναστασίας Δελιά]
TTITLE11=Γαβριήλ Μαρίνος ή Μαρινάκης-χορωδία - Το καϋμένο γαϊδουράκι [Μαρ. Γαβ
TTITLE11=ριήλ]
TTITLE12=Γαβριήλ Μαρίνος ή Μαρινάκης-χορωδία - Δημοπρατήριο [Κώστα Μπέζου]
TTITLE13=Γαβριήλ Μαρίνος ή Μαρινάκης - Έπιασε ψιλή βροχή [Μαρ. Γαβριήλ]
EXTD=
EXTT0=
EXTT1=
EXTT2=
EXTT3=
EXTT4=
EXTT5=
EXTT6=
EXTT7=
EXTT8=
EXTT9=
EXTT10=
EXTT11=
EXTT12=
EXTT13=
PLAYORDER=
